<svg xmlns="http://www.w3.org/2000/svg" width="1280" height="720"><rect width="1280" height="720" x="0" y="0" fill="#FFFFFF" id="background"/><g transform="translate(10,10)" id="viz"><g id="arcs"><path d="M22.720360357226735,580A82.122083255241,82.122083255241 0,0,1 186.9645268677087,580" fill="none" stroke="gray" stroke-width="2.307692307692308" opacity="0.5"/><path d="M186.9645268677087,580A62.95940883438759,62.95940883438759 0,0,1 312.8833445364839,580" fill="none" stroke="gray" stroke-width="20.76923076923077" opacity="0.5"/><path d="M387.2986378362342,580A36.524302886833965,36.524302886833965 0,0,1 460.34724360990214,580" fill="none" stroke="gray" stroke-width="18.461538461538463" opacity="0.5"/><path d="M22.720360357226735,580A253.7736901836428,253.7736901836428 0,0,1 530.2677407245124,580" fill="none" stroke="gray" stroke-width="2.307692307692308" opacity="0.5"/><path d="M387.2986378362342,580A172.7510465479175,172.7510465479175 0,0,1 732.8007309320692,580" fill="none" stroke="gray" stroke-width="6.923076923076923" opacity="0.5"/><path d="M942.2019841955747,580A173.74052417092656,173.74052417092656 0,0,0 594.7209358537216,580" fill="none" stroke="gray" stroke-width="9.230769230769232" opacity="0.5"/><path d="M530.2677407245124,580A237.65795686635585,237.65795686635585 0,0,1 1005.583654457224,580" fill="none" stroke="gray" stroke-width="2.307692307692308" opacity="0.5"/><path d="M82.3726992406559,580A25.18146532959529,25.18146532959529 0,0,1 132.7356298998465,580" fill="none" stroke="gray" stroke-width="9.230769230769232" opacity="0.5"/><path d="M732.8007309320692,580A35.987839658328994,35.987839658328994 0,0,1 804.7764102487272,580" fill="none" stroke="gray" stroke-width="11.538461538461538" opacity="0.5"/><path d="M875.4681557332583,580A95.11250138537275,95.11250138537275 0,0,1 1065.6931585040038,580" fill="none" stroke="gray" stroke-width="16.153846153846153" opacity="0.5"/><path d="M460.34724360990214,580A73.73194953670912,73.73194953670912 0,0,0 312.8833445364839,580" fill="none" stroke="gray" stroke-width="18.461538461538463" opacity="0.5"/><path d="M663.118866476832,580A70.82877188594762,70.82877188594762 0,0,1 804.7764102487272,580" fill="none" stroke="gray" stroke-width="13.846153846153847" opacity="0.5"/><path d="M387.2986378362342,580A182.28913873950373,182.28913873950373 0,0,0 22.720360357226735,580" fill="none" stroke="gray" stroke-width="6.923076923076923" opacity="0.5"/><path d="M594.7209358537216,580A34.198965311555185,34.198965311555185 0,0,1 663.118866476832,580" fill="none" stroke="gray" stroke-width="16.153846153846153" opacity="0.5"/><path d="M594.7209358537216,580A291.71054919335563,291.71054919335563 0,0,1 1178.1420342404328,580" fill="none" stroke="gray" stroke-width="11.538461538461538" opacity="0.5"/><path d="M1005.583654457224,580A272.6182054236609,272.6182054236609 0,0,0 460.34724360990214,580" fill="none" stroke="gray" stroke-width="9.230769230769232" opacity="0.5"/><path d="M312.8833445364839,580A37.20764664987516,37.20764664987516 0,0,1 387.2986378362342,580" fill="none" stroke="gray" stroke-width="30" opacity="0.5"/><path d="M132.7356298998465,580A522.7032021702931,522.7032021702931 0,0,1 1178.1420342404328,580" fill="none" stroke="gray" stroke-width="4.615384615384616" opacity="0.5"/><path d="M1120.9502916597496,580A295.34127546761863,295.34127546761863 0,0,0 530.2677407245124,580" fill="none" stroke="gray" stroke-width="4.615384615384616" opacity="0.5"/><path d="M82.3726992406559,580A29.826169441714583,29.826169441714583 0,0,0 22.720360357226735,580" fill="none" stroke="gray" stroke-width="18.461538461538463" opacity="0.5"/><path d="M663.118866476832,580A66.4255628761598,66.4255628761598 0,0,0 530.2677407245124,580" fill="none" stroke="gray" stroke-width="18.461538461538463" opacity="0.5"/><path d="M460.34724360990214,580A218.8134416263377,218.8134416263377 0,0,0 22.720360357226735,580" fill="none" stroke="gray" stroke-width="13.846153846153847" opacity="0.5"/><path d="M1240.1861477121504,580A497.42295704108517,497.42295704108517 0,0,0 245.34023362998,580" fill="none" stroke="gray" stroke-width="2.307692307692308" opacity="0.5"/><path d="M804.7764102487272,580A68.71278697342376,68.71278697342376 0,0,1 942.2019841955747,580" fill="none" stroke="gray" stroke-width="20.76923076923077" opacity="0.5"/><path d="M1178.1420342404328,580A31.02205673585877,31.02205673585877 0,0,1 1240.1861477121504,580" fill="none" stroke="gray" stroke-width="23.076923076923077" opacity="0.5"/><path d="M186.9645268677087,580A344.2518144327748,344.2518144327748 0,0,1 875.4681557332583,580" fill="none" stroke="gray" stroke-width="4.615384615384616" opacity="0.5"/><path d="M1240.1861477121504,580A182.35899598944604,182.35899598944604 0,0,0 875.4681557332583,580" fill="none" stroke="gray" stroke-width="2.307692307692308" opacity="0.5"/><path d="M132.7356298998465,580A553.7252589061519,553.7252589061519 0,0,1 1240.1861477121504,580" fill="none" stroke="gray" stroke-width="2.307692307692308" opacity="0.5"/><path d="M312.8833445364839,580A73.73194953670912,73.73194953670912 0,0,1 460.34724360990214,580" fill="none" stroke="gray" stroke-width="16.153846153846153" opacity="0.5"/><path d="M732.8007309320692,580A71.33371240059455,71.33371240059455 0,0,1 875.4681557332583,580" fill="none" stroke="gray" stroke-width="13.846153846153847" opacity="0.5"/><path d="M732.8007309320692,580A222.67065165418182,222.67065165418182 0,0,1 1178.1420342404328,580" fill="none" stroke="gray" stroke-width="9.230769230769232" opacity="0.5"/><path d="M1178.1420342404328,580A466.4009003052264,466.4009003052264 0,0,0 245.34023362998,580" fill="none" stroke="gray" stroke-width="2.307692307692308" opacity="0.5"/><path d="M663.118866476832,580A34.198965311555185,34.198965311555185 0,0,0 594.7209358537216,580" fill="none" stroke="gray" stroke-width="18.461538461538463" opacity="0.5"/><path d="M1005.583654457224,580A30.05475202338988,30.05475202338988 0,0,1 1065.6931585040038,580" fill="none" stroke="gray" stroke-width="4.615384615384616" opacity="0.5"/><path d="M22.720360357226735,580A391.02802494575025,391.02802494575025 0,0,1 804.7764102487272,580" fill="none" stroke="gray" stroke-width="4.615384615384616" opacity="0.5"/><path d="M1120.9502916597496,580A194.0747803638402,194.0747803638402 0,0,0 732.8007309320692,580" fill="none" stroke="gray" stroke-width="6.923076923076923" opacity="0.5"/><path d="M1120.9502916597496,580A27.628566577872903,27.628566577872903 0,0,0 1065.6931585040038,580" fill="none" stroke="gray" stroke-width="9.230769230769232" opacity="0.5"/><path d="M312.8833445364839,580A281.2924055983872,281.2924055983872 0,0,1 875.4681557332583,580" fill="none" stroke="gray" stroke-width="4.615384615384616" opacity="0.5"/><path d="M1005.583654457224,580A31.690835130824667,31.690835130824667 0,0,0 942.2019841955747,580" fill="none" stroke="gray" stroke-width="23.076923076923077" opacity="0.5"/><path d="M732.8007309320692,580A355.04018528742125,355.04018528742125 0,0,0 22.720360357226735,580" fill="none" stroke="gray" stroke-width="4.615384615384616" opacity="0.5"/><path d="M460.34724360990214,580A34.96024855730511,34.96024855730511 0,0,1 530.2677407245124,580" fill="none" stroke="gray" stroke-width="11.538461538461538" opacity="0.5"/><path d="M245.34023362998,580A29.18785338113564,29.18785338113564 0,0,0 186.9645268677087,580" fill="none" stroke="gray" stroke-width="16.153846153846153" opacity="0.5"/><path d="M804.7764102487272,580A35.345872742265556,35.345872742265556 0,0,1 875.4681557332583,580" fill="none" stroke="gray" stroke-width="13.846153846153847" opacity="0.5"/><path d="M245.34023362998,580A279.71808830937357,279.71808830937357 0,0,1 804.7764102487272,580" fill="none" stroke="gray" stroke-width="9.230769230769232" opacity="0.5"/><path d="M1240.1861477121504,580A253.6927083900406,253.6927083900406 0,0,0 732.8007309320692,580" fill="none" stroke="gray" stroke-width="9.230769230769232" opacity="0.5"/><path d="M942.2019841955747,580A61.74558715421455,61.74558715421455 0,0,1 1065.6931585040038,580" fill="none" stroke="gray" stroke-width="4.615384615384616" opacity="0.5"/><path d="M530.2677407245124,580A137.25433476210742,137.25433476210742 0,0,1 804.7764102487272,580" fill="none" stroke="gray" stroke-width="6.923076923076923" opacity="0.5"/><path d="M312.8833445364839,580A376.40490698375993,376.40490698375993 0,0,1 1065.6931585040038,580" fill="none" stroke="gray" stroke-width="6.923076923076923" opacity="0.5"/></g><g id="nodes"><g><circle cx="22.720360357226735" cy="580" r="22.720360357226735"/><text transform="translate(22.720360357226735,607.7203603572267) rotate(-90)" alignment-baseline="middle" font-family="Helvetica, Arial, sans-serif" font-size="12" text-anchor="end">@Evelyn18</text></g><g><circle cx="82.3726992406559" cy="580" r="16.96662954709576"/><text transform="translate(82.3726992406559,601.9666295470957) rotate(-90)" alignment-baseline="middle" font-family="Helvetica, Arial, sans-serif" font-size="12" text-anchor="end">@Oliver45</text></g><g><circle cx="132.7356298998465" cy="580" r="13.430952132988164"/><text transform="translate(132.7356298998465,598.4309521329882) rotate(-90)" alignment-baseline="middle" font-family="Helvetica, Arial, sans-serif" font-size="12" text-anchor="end">@Emily32</text></g><g><circle cx="186.9645268677087" cy="580" r="20.832595855767376"/><text transform="translate(186.9645268677087,605.8325958557674) rotate(-90)" alignment-baseline="middle" font-family="Helvetica, Arial, sans-serif" font-size="12" text-anchor="end">@James84</text></g><g><circle cx="245.34023362998" cy="580" r="17.57776192739723"/><text transform="translate(245.34023362998,602.5777619273972) rotate(-90)" alignment-baseline="middle" font-family="Helvetica, Arial, sans-serif" font-size="12" text-anchor="end">@Emma36</text></g><g><circle cx="312.8833445364839" cy="580" r="30"/><text transform="translate(312.8833445364839,615) rotate(-90)" alignment-baseline="middle" font-family="Helvetica, Arial, sans-serif" font-size="12" text-anchor="end">@Mia63</text></g><g><circle cx="387.2986378362342" cy="580" r="24.44994432064365"/><text transform="translate(387.2986378362342,609.4499443206437) rotate(-90)" alignment-baseline="middle" font-family="Helvetica, Arial, sans-serif" font-size="12" text-anchor="end">@Harper46</text></g><g><circle cx="460.34724360990214" cy="580" r="28.63331247391757"/><text transform="translate(460.34724360990214,613.6333124739176) rotate(-90)" alignment-baseline="middle" font-family="Helvetica, Arial, sans-serif" font-size="12" text-anchor="end">@Ava55</text></g><g><circle cx="530.2677407245124" cy="580" r="21.32183566158592"/><text transform="translate(530.2677407245124,606.321835661586) rotate(-90)" alignment-baseline="middle" font-family="Helvetica, Arial, sans-serif" font-size="12" text-anchor="end">@Amelia64</text></g><g><circle cx="594.7209358537216" cy="580" r="23.166010488516726"/><text transform="translate(594.7209358537216,608.1660104885167) rotate(-90)" alignment-baseline="middle" font-family="Helvetica, Arial, sans-serif" font-size="12" text-anchor="end">@Liam59</text></g><g><circle cx="663.118866476832" cy="580" r="25.26657115548686"/><text transform="translate(663.118866476832,610.2665711554869) rotate(-90)" alignment-baseline="middle" font-family="Helvetica, Arial, sans-serif" font-size="12" text-anchor="end">@Mason98</text></g><g><circle cx="732.8007309320692" cy="580" r="24.44994432064365"/><text transform="translate(732.8007309320692,609.4499443206437) rotate(-90)" alignment-baseline="middle" font-family="Helvetica, Arial, sans-serif" font-size="12" text-anchor="end">@Logan8</text></g><g><circle cx="804.7764102487272" cy="580" r="27.560386016907753"/><text transform="translate(804.7764102487272,612.5603860169077) rotate(-90)" alignment-baseline="middle" font-family="Helvetica, Arial, sans-serif" font-size="12" text-anchor="end">@Lucas76</text></g><g><circle cx="875.4681557332583" cy="580" r="23.166010488516726"/><text transform="translate(875.4681557332583,608.1660104885167) rotate(-90)" alignment-baseline="middle" font-family="Helvetica, Arial, sans-serif" font-size="12" text-anchor="end">@Noah90</text></g><g><circle cx="942.2019841955747" cy="580" r="23.602468994692867"/><text transform="translate(942.2019841955747,608.6024689946929) rotate(-90)" alignment-baseline="middle" font-family="Helvetica, Arial, sans-serif" font-size="12" text-anchor="end">@John75</text></g><g><circle cx="1005.583654457224" cy="580" r="19.81385228784985"/><text transform="translate(1005.583654457224,604.8138522878498) rotate(-90)" alignment-baseline="middle" font-family="Helvetica, Arial, sans-serif" font-size="12" text-anchor="end">@Elijah79</text></g><g><circle cx="1065.6931585040038" cy="580" r="20.330302779823356"/><text transform="translate(1065.6931585040038,605.3303027798233) rotate(-90)" alignment-baseline="middle" font-family="Helvetica, Arial, sans-serif" font-size="12" text-anchor="end">@Ethan26</text></g><g><circle cx="1120.9502916597496" cy="580" r="14.96148139681572"/><text transform="translate(1120.9502916597496,599.9614813968158) rotate(-90)" alignment-baseline="middle" font-family="Helvetica, Arial, sans-serif" font-size="12" text-anchor="end">@Isabella48</text></g><g><circle cx="1178.1420342404328" cy="580" r="22.264912204760883"/><text transform="translate(1178.1420342404328,607.2649122047609) rotate(-90)" alignment-baseline="middle" font-family="Helvetica, Arial, sans-serif" font-size="12" text-anchor="end">@Sophia70</text></g><g><circle cx="1240.1861477121504" cy="580" r="19.81385228784985"/><text transform="translate(1240.1861477121504,604.8138522878498) rotate(-90)" alignment-baseline="middle" font-family="Helvetica, Arial, sans-serif" font-size="12" text-anchor="end">@Abigail70</text></g></g></g></svg>